<?xml version="1.0" standalone="no"?>
<!DOCTYPE svg PUBLIC "-//W3C//DTD SVG 20010904//EN"
 "http://www.w3.org/TR/2001/REC-SVG-20010904/DTD/svg10.dtd">
<svg version="1.0" xmlns="http://www.w3.org/2000/svg"
 width="602.000000pt" height="602.000000pt" viewBox="0 0 602.000000 602.000000"
 preserveAspectRatio="xMidYMid meet">
<metadata>
Created by potrace 1.14, written by Peter Selinger 2001-2017
</metadata>
<g transform="translate(0.000000,602.000000) scale(0.100000,-0.100000)"
fill="#000000" stroke="none">
<path d="M1509 4386 c-2 -2 -20 -6 -39 -9 -88 -12 -203 -105 -251 -203 -27
-55 -33 -78 -35 -147 -2 -68 2 -93 24 -147 33 -82 117 -170 197 -205 60 -27
80 -31 70 -15 -3 6 -15 10 -26 10 -10 0 -19 5 -19 10 0 6 -3 9 -7 8 -15 -4
-53 13 -53 23 0 6 5 7 12 3 6 -4 8 -3 5 4 -4 5 -15 8 -25 5 -12 -3 -18 2 -19
17 -1 11 2 18 8 15 5 -4 14 5 20 19 7 14 15 24 18 21 4 -2 13 1 21 6 11 7 9 8
-9 6 -14 -2 -27 -9 -29 -15 -2 -7 -17 -1 -38 16 -38 30 -41 38 -19 40 8 1 22
3 29 4 8 1 20 14 27 30 6 15 15 25 20 22 5 -3 6 3 2 13 -6 15 -4 16 9 5 13
-10 17 -10 20 0 3 7 13 13 23 13 10 0 20 6 22 13 3 6 0 12 -7 12 -6 0 -8 -5
-4 -12 5 -8 2 -9 -9 -5 -9 3 -19 2 -22 -3 -4 -6 -11 -10 -18 -10 -20 0 29 41
51 43 20 1 20 2 4 21 -14 15 -14 18 -2 14 8 -2 21 -15 27 -29 7 -13 17 -23 23
-21 14 3 12 -16 -2 -20 -8 -3 -7 -6 4 -10 11 -5 15 0 14 15 -1 13 -8 21 -15
19 -8 -2 -11 3 -8 11 3 7 -4 19 -14 26 -19 11 -18 31 2 31 6 0 8 -4 5 -9 -3
-5 1 -12 10 -15 21 -8 21 -8 28 10 5 14 4 15 -8 5 -11 -9 -15 -8 -20 5 -4 9
-13 14 -21 10 -18 -6 -19 -1 -5 25 6 10 16 19 22 19 7 0 7 -5 -1 -14 -10 -11
-8 -16 9 -21 12 -4 24 -4 27 -1 4 3 -1 6 -10 6 -9 0 -17 5 -17 10 0 6 7 10 15
10 8 0 15 4 15 10 0 5 -6 7 -13 4 -8 -3 -13 3 -13 16 0 25 11 26 28 2 13 -17
14 -17 31 0 9 10 13 18 9 18 -4 0 -13 -5 -20 -12 -7 -7 -12 -8 -12 -2 0 17 22
33 39 27 13 -4 13 -3 2 5 -21 15 23 36 48 23 15 -9 22 -6 35 14 19 29 20 35 5
35 -5 0 -7 -4 -4 -10 3 -5 2 -10 -4 -10 -5 0 -11 -8 -13 -17 -3 -16 -7 -14
-31 9 -23 23 -26 31 -17 48 10 18 7 24 -12 21 -5 0 -8 4 -8 9 0 14 23 13 38
-2 7 -7 8 -17 2 -28 -5 -9 -5 -22 0 -30 8 -13 12 -12 24 5 8 11 12 22 9 25 -3
3 -8 -1 -10 -7 -3 -7 -9 -13 -14 -13 -6 0 -5 9 1 21 7 12 18 18 26 15 8 -3 21
-3 30 1 22 8 -4 25 -28 17 -13 -4 -16 -1 -12 9 3 8 1 18 -5 22 -6 3 -9 0 -5
-8 3 -8 -2 -14 -11 -14 -8 0 -14 7 -13 16 2 9 -2 15 -9 14 -7 -2 -10 4 -6 12
4 12 8 13 20 4 10 -9 17 -9 25 -1 16 16 33 15 20 -1 -12 -14 2 -46 15 -34 4 5
1 12 -7 17 -9 6 -10 10 -3 10 6 0 11 8 10 19 -1 14 -8 18 -29 17 -15 0 -28 -4
-28 -9 0 -4 -4 -6 -9 -3 -4 3 -17 -2 -27 -10 -10 -9 -13 -13 -7 -9 9 4 11 1 6
-11 -5 -14 -3 -16 13 -10 16 6 17 5 6 -6 -11 -11 -16 -10 -27 5 -9 13 -14 14
-17 6 -3 -10 -6 -10 -12 -1 -4 7 -2 12 4 12 6 0 8 5 5 11 -5 6 -13 3 -22 -10
-18 -26 -36 -27 -29 -3 4 11 1 19 -6 20 -7 0 -25 3 -40 5 -16 2 -28 0 -28 -4
0 -5 6 -10 13 -10 6 -1 17 -2 24 -3 7 0 19 -10 26 -21 13 -17 17 -18 33 -5 11
8 16 10 12 6 -4 -5 -2 -16 5 -25 10 -14 10 -14 -3 -6 -9 6 -7 2 3 -7 11 -10
15 -18 9 -18 -5 0 -15 7 -22 15 -14 17 -30 20 -30 4 0 -5 4 -8 9 -5 5 3 15 -2
22 -12 13 -16 13 -16 -6 -2 -19 14 -19 14 -5 -5 14 -19 14 -19 -4 -5 -18 13
-19 13 -11 0 8 -13 7 -13 -10 0 -15 12 -17 12 -10 1 6 -10 4 -12 -5 -6 -9 6
-11 4 -5 -5 6 -9 4 -11 -5 -5 -9 6 -11 4 -6 -6 4 -8 1 -6 -7 4 -11 13 -16 15
-20 5 -2 -7 -8 -9 -13 -5 -5 4 -2 12 6 17 8 6 13 10 10 11 -14 2 -36 7 -45 10
-17 5 -56 -12 -50 -22 4 -5 14 -5 26 1 25 14 42 4 34 -20 -6 -18 8 -22 31 -7
15 9 24 -1 17 -21 -4 -13 -3 -14 5 -4 8 11 10 11 15 -1 3 -9 -1 -14 -11 -14
-40 0 -48 -3 -33 -12 9 -6 10 -11 2 -15 -6 -4 -11 -2 -11 4 0 6 -5 8 -11 4 -8
-4 -7 -9 2 -16 10 -6 6 -7 -11 -3 l-25 6 25 -20 c24 -19 24 -20 3 -18 -12 0
-19 6 -16 12 4 5 2 7 -2 2 -5 -4 -9 -16 -10 -27 -1 -15 2 -17 16 -9 28 15 36
10 9 -6 -14 -8 -19 -14 -11 -15 8 0 11 -3 8 -6 -4 -4 -14 -1 -24 7 -14 12 -16
12 -8 0 5 -9 4 -12 -3 -7 -7 4 -10 -1 -7 -14 3 -13 0 -18 -7 -14 -7 5 -8 2 -3
-6 5 -8 4 -11 -2 -7 -5 3 -10 0 -10 -7 0 -9 7 -12 16 -8 21 7 12 -2 -17 -17
-22 -12 -23 -11 -12 9 10 18 9 21 -1 15 -8 -5 -10 -4 -5 3 4 7 5 12 2 12 -3 0
-10 -10 -17 -21 -9 -17 -8 -20 3 -13 7 4 5 -2 -6 -14 -10 -12 -23 -19 -27 -16
-5 3 -9 0 -9 -5 0 -15 13 -14 29 2 11 9 12 9 7 0 -4 -7 -17 -18 -29 -24 -12
-7 -19 -8 -15 -4 4 4 1 20 -7 35 -8 15 -11 30 -8 34 4 3 2 6 -4 6 -6 0 -14 -7
-17 -16 -8 -22 -8 -24 5 -22 6 2 14 -3 17 -11 3 -10 0 -12 -14 -8 -18 7 -18 6
-1 -7 22 -17 23 -26 5 -38 -9 -6 -8 -8 7 -6 19 3 29 -21 14 -32 -4 -3 -1 -14
7 -25 13 -17 16 -18 24 -5 5 8 10 13 11 10 5 -27 4 -52 -3 -62 -5 -9 -8 -5 -8
11 0 13 -3 22 -6 18 -7 -7 -23 9 -42 42 -8 13 -9 20 -3 16 6 -3 11 -2 11 3 0
6 -7 13 -16 16 -10 4 -13 13 -9 27 5 16 4 19 -5 14 -8 -5 -11 -4 -6 3 3 6 2
13 -4 17 -6 4 -8 11 -5 16 4 5 3 14 -1 21 -16 26 -12 58 12 83 24 26 52 29 47
6 -2 -6 4 -11 12 -11 21 0 19 18 -5 32 -11 7 -20 17 -20 22 0 5 -6 17 -12 26
-7 9 0 2 15 -14 16 -17 33 -30 39 -28 5 1 16 -3 24 -9 8 -7 14 -7 14 -1 0 15
-28 35 -39 28 -5 -4 -12 -2 -15 3 -4 6 6 8 24 6 26 -4 28 -2 19 13 -6 10 -25
27 -42 40 -18 12 -26 22 -20 22 7 0 29 -16 48 -36 40 -40 56 -41 25 -1 -23 28
-25 37 -9 37 5 0 8 -3 6 -7 -3 -5 1 -13 7 -19 9 -9 18 -8 36 1 13 7 18 15 12
19 -6 3 -14 2 -17 -4 -4 -6 -14 -1 -26 14 -25 32 -25 45 1 16 11 -13 23 -20
27 -17 3 4 -4 18 -17 32 -13 14 -20 28 -17 32 4 3 7 1 7 -5 0 -6 7 -9 16 -5
13 5 13 8 2 15 -8 6 -5 7 12 2 23 -6 24 -5 10 11 -13 15 -12 19 3 30 9 6 13
16 9 20 -4 4 3 3 15 -4 12 -6 25 -16 28 -21 4 -6 10 -8 15 -5 12 8 -22 43 -35
37 -5 -3 -6 -1 -2 3 8 10 34 17 57 15 8 0 23 0 33 -1 9 0 17 -6 17 -12 0 -7 4
-6 10 3 7 11 10 11 10 2 0 -7 5 -10 10 -7 13 8 1 28 -14 22 -6 -2 -20 -1 -31
4 -18 7 -17 8 7 8 14 1 35 4 45 7 15 5 15 4 3 -5 -15 -10 -14 -12 13 -15 6 -1
11 -7 9 -14 -2 -9 6 -9 27 2 15 8 31 12 35 9 3 -4 6 -2 6 4 0 8 10 8 35 0 19
-6 35 -14 35 -19 0 -5 -3 -7 -7 -5 -5 3 -9 -6 -10 -20 -1 -19 1 -22 8 -12 7
11 9 11 9 -3 0 -9 -6 -19 -12 -21 -10 -4 -10 -6 0 -6 7 -1 16 7 19 17 4 9 11
21 17 25 7 6 4 7 -6 3 -18 -5 -25 8 -10 18 12 7 63 -29 55 -39 -5 -4 -3 -5 3
-2 6 4 26 -7 44 -23 29 -26 31 -32 19 -47 -11 -15 -11 -16 0 -6 11 9 16 9 25
0 17 -17 45 -80 52 -116 4 -17 11 -31 16 -31 6 0 7 8 3 18 -4 9 -8 24 -10 33
-2 9 -15 39 -28 66 -43 85 -132 158 -229 187 -41 12 -46 12 -57 -5 -13 -22
-27 -24 -34 -5 -4 10 0 12 14 9 10 -3 19 0 19 6 0 10 -101 17 -111 7z m146
-56 c-3 -5 -12 -10 -18 -10 -7 0 -6 4 3 10 19 12 23 12 15 0z m-312 -51 c-8
-8 -13 -7 -18 2 -5 8 -4 10 3 5 7 -4 12 -2 12 5 0 7 3 9 7 6 4 -4 2 -12 -4
-18z m243 -15 c3 -24 10 -54 19 -76 5 -11 3 -18 -5 -18 -7 0 -21 -11 -31 -24
-15 -19 -27 -24 -53 -22 -18 2 -39 7 -46 11 -9 6 -11 4 -5 -5 6 -9 4 -11 -5
-5 -9 6 -11 4 -5 -5 5 -9 4 -11 -3 -6 -8 4 -10 2 -6 -7 3 -8 1 -17 -3 -20 -15
-9 -12 31 3 43 7 7 11 16 9 21 -3 4 4 6 16 4 31 -6 42 4 24 22 -19 18 -4 43
23 38 9 -2 21 -4 26 -4 12 -1 -14 -31 -26 -31 -7 0 -6 5 1 13 8 10 7 14 -3 14
-17 0 -14 -26 3 -37 8 -4 9 -9 3 -11 -6 -3 -5 -8 2 -15 9 -9 17 -8 32 3 18 15
18 15 -3 9 -16 -5 -21 -3 -19 8 2 18 16 34 16 19 0 -5 7 -10 16 -10 15 0 15 1
0 13 -13 9 -14 13 -4 16 7 3 19 -2 26 -11 11 -14 12 -13 3 5 -6 12 -7 25 -3
30 4 5 -1 2 -11 -5 -9 -8 -21 -11 -25 -7 -4 4 1 12 11 18 17 9 17 12 3 33 -14
21 -14 23 1 21 9 -2 18 -11 19 -22z m-280 -46 c-1 -12 -9 -24 -17 -26 -8 -2
-10 0 -4 5 6 4 12 17 13 27 3 18 2 19 -15 5 -16 -13 -17 -13 -4 3 17 22 32 14
27 -14z m-46 -63 c-1 -5 9 -13 22 -17 22 -7 22 -7 -2 -5 -14 1 -24 6 -22 12 2
5 -5 13 -15 17 -17 7 -17 8 0 5 10 -1 18 -6 17 -12z m-30 -45 c6 -11 7 -20 2
-20 -6 0 -12 9 -15 20 -3 11 -3 20 -1 20 2 0 8 -9 14 -20z m268 1 c11 -6 8
-14 -13 -35 -15 -15 -24 -33 -22 -41 3 -7 -2 -16 -11 -20 -19 -7 -28 -4 -24 8
1 4 -2 7 -8 7 -5 0 -10 -5 -10 -12 0 -6 -8 -20 -17 -31 -11 -12 -12 -17 -4
-12 10 5 12 4 7 -3 -4 -7 -2 -12 3 -12 10 0 15 14 12 32 -1 9 36 5 45 -5 4 -4
0 -7 -8 -7 -16 0 -72 -56 -80 -82 -3 -7 -9 -9 -14 -5 -5 4 -2 12 6 17 11 7 11
10 2 10 -10 0 -10 3 0 14 7 8 16 12 20 9 4 -2 5 3 2 12 -6 13 -9 12 -23 -7 -9
-13 -15 -26 -14 -30 1 -3 -4 -9 -13 -12 -8 -3 -12 -2 -9 3 3 5 1 13 -5 16 -6
4 -10 3 -9 -2 3 -18 -1 -36 -8 -30 -3 4 -12 2 -18 -3 -9 -7 -16 -6 -24 4 -10
12 -9 14 6 12 17 -3 50 31 46 46 -2 4 9 5 23 2 15 -3 23 -1 20 5 -3 5 -1 11 6
13 7 3 12 18 13 34 0 22 5 29 20 29 13 0 19 6 17 15 -3 12 -1 13 9 3 18 -18
27 -16 40 8 8 15 8 19 0 15 -14 -9 -14 0 -1 25 12 21 18 23 38 10z m-48 -51
c0 -5 -4 -10 -10 -10 -5 0 -10 5 -10 10 0 6 5 10 10 10 6 0 10 -4 10 -10z
m-101 -174 c9 -11 8 -15 -4 -20 -9 -3 -13 -2 -10 4 3 6 -1 7 -9 4 -9 -3 -13
-11 -9 -17 3 -6 1 -7 -5 -3 -6 3 -15 -2 -21 -11 -5 -10 -13 -14 -17 -10 -5 5
-2 12 6 17 11 7 11 10 2 10 -10 0 -10 3 0 14 7 8 15 12 18 11 3 -2 12 0 20 6
19 11 16 11 29 -5z m-9 -93 c23 -20 26 -34 8 -30 -7 1 -12 -6 -12 -16 2 -14
-1 -15 -12 -6 -18 14 -19 43 -1 33 10 -6 10 -4 0 7 -27 28 -14 38 17 12z"/>
<path d="M1495 4140 c-3 -5 -1 -10 4 -10 6 0 11 5 11 10 0 6 -2 10 -4 10 -3 0
-8 -4 -11 -10z"/>
<path d="M1475 4100 c-3 -5 -1 -10 4 -10 6 0 11 5 11 10 0 6 -2 10 -4 10 -3 0
-8 -4 -11 -10z"/>
<path d="M1383 4015 c0 -8 4 -12 9 -9 5 3 6 10 3 15 -9 13 -12 11 -12 -6z"/>
<path d="M1565 4341 c-3 -5 -2 -12 3 -15 5 -3 9 1 9 9 0 17 -3 19 -12 6z"/>
<path d="M1526 4313 c-6 -14 -5 -15 5 -6 7 7 10 15 7 18 -3 3 -9 -2 -12 -12z"/>
<path d="M1390 4300 c-13 -9 -11 -13 10 -31 23 -20 24 -20 31 -2 6 17 -6 43
-20 43 -3 0 -13 -5 -21 -10z m29 -23 c0 -9 -2 -8 -6 1 -2 6 -10 9 -15 6 -7 -4
-8 -2 -4 5 9 13 26 5 25 -12z"/>
<path d="M1457 4292 c-21 -23 -21 -36 -2 -52 11 -9 18 -10 28 -1 8 6 16 9 19
6 2 -3 4 5 3 17 -1 12 -7 24 -13 26 -7 2 -10 8 -6 13 10 16 -13 9 -29 -9z m18
-11 c-3 -5 -1 -12 5 -16 6 -4 8 -11 4 -16 -9 -15 -34 10 -27 27 3 8 9 14 15
14 5 0 7 -4 3 -9z"/>
<path d="M1750 4291 c0 -5 5 -13 10 -16 6 -3 10 -2 10 4 0 5 -4 13 -10 16 -5
3 -10 2 -10 -4z"/>
<path d="M1780 4274 c0 -6 3 -14 7 -18 11 -11 13 -39 3 -51 -6 -8 -5 -12 4
-12 16 0 15 44 -1 72 -7 11 -13 15 -13 9z"/>
<path d="M1725 4260 c-3 -6 1 -7 9 -4 18 7 21 14 7 14 -6 0 -13 -4 -16 -10z"/>
<path d="M1735 4240 c-3 -6 1 -7 9 -4 18 7 21 14 7 14 -6 0 -13 -4 -16 -10z"/>
<path d="M1710 4229 c0 -5 -4 -7 -10 -4 -6 4 -7 -1 -3 -11 4 -11 8 -13 11 -6
2 7 8 10 13 7 5 -4 6 1 3 9 -7 18 -14 21 -14 5z"/>
<path d="M1382 4223 c-10 -4 -10 -10 3 -29 15 -23 14 -25 -10 -36 -15 -7 -24
-17 -21 -25 3 -8 -1 -16 -9 -19 -8 -4 -15 -11 -15 -16 0 -6 8 -4 17 3 14 12
15 12 9 0 -5 -8 -3 -17 5 -23 11 -8 10 -9 -3 -4 -10 3 -20 1 -24 -5 -4 -6 -11
-6 -20 2 -8 6 -17 9 -21 5 -3 -3 0 -6 8 -6 8 -1 2 -11 -16 -25 -16 -13 -26
-27 -23 -30 4 -4 15 2 26 13 20 20 21 20 19 2 -1 -10 -5 -16 -11 -13 -5 3 -6
1 -2 -6 6 -9 11 -9 22 0 8 6 14 8 14 4 0 -4 7 -2 15 5 12 10 13 16 4 27 -7 7
-9 16 -5 20 3 3 6 1 6 -7 0 -9 3 -10 14 -1 8 7 12 21 9 31 -3 12 0 20 6 20 7
0 10 4 7 9 -3 5 10 19 29 32 19 13 37 30 40 38 4 10 2 11 -7 4 -7 -5 -19 -8
-25 -7 -7 1 -18 2 -25 3 -9 1 -9 4 0 13 22 22 14 33 -16 21z m48 -47 c0 -3
-13 -14 -30 -26 -16 -12 -30 -18 -30 -13 0 4 12 15 28 25 32 19 32 19 32 14z
m-87 -141 c4 3 5 2 2 -2 -12 -15 -31 -10 -31 9 0 17 2 17 12 4 6 -9 14 -14 17
-11z"/>
<path d="M1715 4191 c-3 -5 -2 -12 3 -15 5 -3 9 1 9 9 0 17 -3 19 -12 6z"/>
<path d="M1744 4169 c0 -13 3 -15 13 -7 7 6 13 12 13 13 0 2 -6 5 -13 8 -7 3
-13 -3 -13 -14z"/>
<path d="M1672 4150 c-18 -29 -15 -38 4 -12 9 13 14 25 12 27 -2 2 -9 -5 -16
-15z"/>
<path d="M1610 4140 c0 -5 8 -14 18 -19 14 -7 19 -6 19 4 0 7 -7 11 -15 7 -10
-3 -13 -1 -8 6 4 7 2 12 -3 12 -6 0 -11 -4 -11 -10z"/>
<path d="M1697 4136 c-4 -10 -1 -13 8 -9 8 3 12 9 9 14 -7 12 -11 11 -17 -5z"/>
<path d="M1815 4120 c3 -5 8 -10 11 -10 2 0 4 5 4 10 0 6 -5 10 -11 10 -5 0
-7 -4 -4 -10z"/>
<path d="M2740 4120 c-25 -4 -61 -10 -80 -14 -19 -3 -57 -12 -85 -21 -27 -9
-59 -18 -71 -20 -41 -9 -200 -94 -274 -146 -142 -100 -284 -266 -364 -427 -31
-62 -83 -213 -92 -267 -3 -20 -8 -47 -11 -59 -2 -11 -6 -79 -7 -151 -3 -133
20 -287 58 -392 17 -48 23 -39 -75 -123 -77 -67 -159 -140 -179 -160 -8 -9
-44 -41 -80 -72 l-65 -56 -272 1 -272 1 -58 -40 c-32 -22 -182 -127 -333 -234
-151 -106 -304 -213 -340 -238 -79 -55 -74 -51 -68 -57 5 -5 21 6 418 285 151
107 295 207 320 224 25 16 47 33 50 37 3 4 130 7 283 7 l278 1 77 67 c42 37
82 73 87 78 6 6 43 40 84 76 41 36 93 82 115 102 23 21 44 38 48 38 3 0 18
-26 33 -57 43 -95 132 -218 221 -307 164 -165 368 -272 599 -316 75 -15 295
-19 360 -7 22 4 56 10 75 13 66 11 195 56 271 94 76 39 200 119 230 149 9 9
34 32 55 52 78 72 145 158 204 263 35 62 36 62 68 10 8 -13 172 -97 178 -92 2
3 -33 22 -78 44 -50 24 -90 51 -106 72 l-25 33 21 52 c25 63 59 180 67 227 2
19 8 60 13 90 8 58 8 153 -2 242 -50 459 -381 844 -831 967 -137 38 -328 51
-445 31z"/>
<path d="M1601 4114 c-1 -5 5 -18 12 -29 11 -14 16 -15 22 -5 6 9 4 11 -5 5
-10 -6 -12 -4 -7 9 4 9 3 15 -2 11 -5 -3 -12 1 -14 7 -3 7 -6 8 -6 2z"/>
<path d="M1733 4105 c0 -8 4 -12 9 -9 5 3 6 10 3 15 -9 13 -12 11 -12 -6z"/>
<path d="M1675 4100 c3 -5 8 -10 11 -10 2 0 4 5 4 10 0 6 -5 10 -11 10 -5 0
-7 -4 -4 -10z"/>
<path d="M1577 4093 c-4 -3 -7 -11 -7 -17 0 -6 5 -5 12 2 6 6 9 14 7 17 -3 3
-9 2 -12 -2z"/>
<path d="M1795 4080 c-3 -5 -1 -10 4 -10 6 0 11 5 11 10 0 6 -2 10 -4 10 -3 0
-8 -4 -11 -10z"/>
<path d="M1691 4067 c-8 -10 -7 -14 2 -14 8 0 14 6 14 14 0 7 -1 13 -2 13 -2
0 -8 -6 -14 -13z"/>
<path d="M1221 4049 c-11 -12 -18 -32 -17 -45 3 -28 15 -44 17 -23 1 8 3 21 4
29 1 8 3 21 4 28 0 7 6 10 12 6 8 -4 7 -9 -2 -15 -11 -6 -10 -12 4 -27 9 -10
14 -22 10 -25 -3 -4 -1 -7 6 -7 7 0 10 -4 7 -9 -4 -5 2 -8 11 -7 16 3 18 10
14 47 0 6 -10 8 -21 4 -18 -6 -20 -3 -16 29 5 41 -5 45 -33 15z m65 -75 c1 -9
0 -13 -4 -10 -3 4 -7 14 -8 22 -1 9 0 13 4 10 3 -4 7 -14 8 -22z"/>
<path d="M1550 4060 c0 -6 7 -10 15 -10 8 0 15 2 15 4 0 2 -7 6 -15 10 -8 3
-15 1 -15 -4z"/>
<path d="M1602 4056 c7 -8 15 -12 17 -11 5 6 -10 25 -20 25 -5 0 -4 -6 3 -14z"/>
<path d="M1635 4060 c-3 -5 -1 -10 4 -10 6 0 11 5 11 10 0 6 -2 10 -4 10 -3 0
-8 -4 -11 -10z"/>
<path d="M1939 4018 c-1 -72 -8 -101 -41 -166 -38 -75 -109 -141 -186 -171
-28 -11 -52 -18 -52 -15 0 4 -6 2 -12 -4 -7 -5 -46 -9 -85 -8 -40 1 -73 -2
-73 -5 0 -13 140 -7 187 7 153 46 259 175 270 330 3 41 3 74 -1 74 -3 0 -6
-19 -7 -42z"/>
<path d="M1590 4041 c0 -6 4 -13 10 -16 6 -3 7 1 4 9 -7 18 -14 21 -14 7z"/>
<path d="M1550 4031 c0 -10 19 -25 25 -20 1 2 -3 10 -11 17 -8 7 -14 8 -14 3z"/>
<path d="M1593 4003 c4 -3 2 -11 -3 -18 -7 -8 -6 -12 3 -12 7 0 14 9 14 19 1
10 -3 18 -9 18 -6 0 -8 -3 -5 -7z"/>
<path d="M1530 3980 c0 -5 5 -10 10 -10 6 0 10 5 10 10 0 6 -4 10 -10 10 -5 0
-10 -4 -10 -10z"/>
<path d="M1560 3946 c7 -7 13 -7 20 0 6 6 3 10 -10 10 -13 0 -16 -4 -10 -10z"/>
<path d="M1785 3940 c-3 -6 1 -7 9 -4 18 7 21 14 7 14 -6 0 -13 -4 -16 -10z"/>
<path d="M1470 3920 c0 -5 5 -10 10 -10 6 0 10 5 10 10 0 6 -4 10 -10 10 -5 0
-10 -4 -10 -10z"/>
<path d="M1430 3910 c0 -5 7 -10 16 -10 8 0 12 -5 9 -10 -3 -6 1 -13 9 -16 9
-3 14 -10 11 -14 -3 -5 -1 -11 4 -14 5 -4 8 2 7 11 -2 9 -8 19 -14 21 -7 2
-10 8 -7 12 3 5 -4 14 -15 20 -13 7 -20 7 -20 0z"/>
<path d="M1716 3907 c3 -10 9 -15 12 -12 3 3 0 11 -7 18 -10 9 -11 8 -5 -6z"/>
<path d="M1494 3898 c-5 -7 -3 -8 6 -3 10 6 12 4 7 -8 -4 -11 -2 -14 9 -10 11
4 12 9 3 19 -14 17 -16 17 -25 2z"/>
<path d="M1375 3860 c-9 -16 -13 -30 -11 -30 3 0 12 14 21 30 9 17 13 30 11
30 -3 0 -12 -13 -21 -30z"/>
<path d="M1552 3871 c7 -9 13 -18 15 -20 1 -2 1 5 0 16 0 11 -7 20 -14 20 -10
0 -10 -4 -1 -16z"/>
<path d="M1396 3855 c-3 -8 -1 -15 4 -15 6 0 10 7 10 15 0 8 -2 15 -4 15 -2 0
-6 -7 -10 -15z"/>
<path d="M1420 3866 c0 -2 9 -6 20 -9 11 -3 18 -1 14 4 -5 9 -34 13 -34 5z"/>
<path d="M1504 3842 c4 -3 14 -7 22 -8 9 -1 13 0 10 4 -4 3 -14 7 -22 8 -9 1
-13 0 -10 -4z"/>
<path d="M1340 3825 c7 -8 17 -15 22 -15 5 0 3 7 -6 15 -8 8 -18 15 -22 15 -3
0 -1 -7 6 -15z"/>
<path d="M1437 3833 c-11 -11 -8 -20 7 -20 8 0 12 6 9 14 -6 15 -7 15 -16 6z"/>
<path d="M1553 3825 c0 -8 4 -12 9 -9 5 3 6 10 3 15 -9 13 -12 11 -12 -6z"/>
<path d="M1589 3823 c-13 -16 -12 -17 4 -4 9 7 17 15 17 17 0 8 -8 3 -21 -13z"/>
<path d="M1496 3787 c3 -10 9 -15 12 -12 3 3 0 11 -7 18 -10 9 -11 8 -5 -6z"/>
<path d="M1401 3776 c-9 -11 -9 -16 0 -22 8 -5 9 -3 4 6 -6 9 -4 12 7 8 9 -4
15 0 15 8 0 18 -11 18 -26 0z"/>
<path d="M1459 3773 c-12 -16 -12 -17 2 -6 9 7 20 9 24 5 5 -4 5 -1 1 6 -9 16
-11 15 -27 -5z"/>
<path d="M1546 3782 c-3 -5 1 -9 9 -9 8 0 12 4 9 9 -3 4 -7 8 -9 8 -2 0 -6 -4
-9 -8z"/>
<path d="M1370 3746 c0 -2 7 -7 16 -10 8 -3 12 -2 9 4 -6 10 -25 14 -25 6z"/>
<path d="M1453 3733 c0 -9 4 -10 13 -2 7 6 19 7 25 3 7 -4 9 -3 5 4 -9 15 -43
11 -43 -5z"/>
<path d="M4913 3739 c-67 -12 -122 -48 -158 -102 -19 -30 -46 -107 -37 -107 4
0 14 21 21 47 17 57 82 125 135 143 21 6 55 10 77 8 21 -2 39 -1 39 3 0 12
-34 15 -77 8z"/>
<path d="M5025 3715 c72 -32 134 -121 135 -192 0 -18 4 -33 8 -33 13 0 -2 80
-22 120 -32 62 -101 122 -138 119 -7 0 1 -7 17 -14z"/>
<path d="M1516 3702 c-3 -5 1 -9 9 -9 8 0 12 4 9 9 -3 4 -7 8 -9 8 -2 0 -6 -4
-9 -8z"/>
<path d="M4715 3510 c-3 -5 -1 -10 4 -10 6 0 11 5 11 10 0 6 -2 10 -4 10 -3 0
-8 -4 -11 -10z"/>
<path d="M70 3506 c0 -2 7 -7 16 -10 8 -3 12 -2 9 4 -6 10 -25 14 -25 6z"/>
<path d="M4710 3480 c0 -5 5 -10 10 -10 6 0 10 5 10 10 0 6 -4 10 -10 10 -5 0
-10 -4 -10 -10z"/>
<path d="M5161 3463 c-5 -96 -109 -193 -207 -193 -21 0 -34 -3 -30 -7 12 -12
78 -2 116 17 72 37 140 136 127 186 -4 16 -5 16 -6 -3z"/>
<path d="M4721 3452 c-1 -20 26 -80 49 -109 27 -35 78 -68 115 -77 20 -4 13 2
-23 20 -59 29 -97 71 -123 136 -10 24 -18 37 -18 30z"/>
<path d="M794 3425 c-27 -13 -59 -40 -72 -58 -24 -37 -40 -124 -27 -154 9 -21
12 -29 14 -43 2 -16 61 -71 71 -65 4 3 11 -3 14 -12 6 -14 8 -14 22 3 14 19
14 19 12 -1 -4 -25 36 -30 54 -7 10 13 10 14 1 8 -7 -4 -13 -2 -13 3 0 12 23
15 33 4 4 -3 2 -12 -4 -20 -23 -27 2 -12 32 20 27 29 30 30 24 8 -5 -17 -4
-22 6 -19 8 3 13 12 11 20 -3 20 24 43 33 28 3 -5 1 -10 -4 -10 -6 0 -11 -5
-11 -12 0 -6 9 -3 21 8 24 22 53 74 42 74 -5 0 -1 4 7 10 8 5 11 12 7 16 -3 4
-14 1 -22 -6 -11 -9 -13 -15 -5 -20 8 -5 6 -9 -5 -13 -11 -5 -14 -3 -9 6 4 6
4 9 -1 5 -4 -4 -15 -2 -23 5 -13 10 -14 9 -7 -3 4 -8 5 -12 0 -8 -4 4 -14 3
-22 -3 -7 -6 -13 -8 -13 -4 0 4 -7 2 -15 -5 -11 -9 -15 -9 -15 -1 0 7 -5 9
-11 6 -6 -5 -4 -11 6 -19 15 -10 14 -12 -4 -12 -11 0 -17 5 -14 10 3 5 1 6 -5
2 -6 -3 -13 -2 -17 4 -4 6 -11 8 -16 4 -5 -3 -7 -9 -4 -14 3 -5 -4 -8 -15 -7
-22 1 -22 1 -24 38 -1 18 2 25 11 22 9 -4 11 1 7 13 -4 13 0 11 12 -6 19 -25
44 -37 44 -21 0 5 -10 16 -22 25 -29 22 -2 9 34 -16 31 -22 45 -23 28 -4 -8
11 -9 20 -1 33 6 10 11 13 11 8 0 -6 9 -11 20 -12 25 -2 16 15 -14 27 l-21 9
21 0 c12 1 24 -6 28 -14 3 -8 10 -15 16 -15 6 0 5 11 -4 28 -12 23 -12 29 -1
29 8 0 11 -7 7 -16 -5 -13 -3 -14 9 -5 11 9 19 7 34 -9 l20 -20 -23 13 c-13 6
-26 9 -30 6 -8 -9 3 -16 32 -22 25 -4 25 -3 22 42 -2 25 -9 51 -16 57 -10 10
-12 8 -7 -6 4 -11 3 -16 -4 -12 -5 4 -7 15 -4 24 7 22 -47 73 -94 89 -52 18
-92 14 -147 -13z m156 -59 c0 -3 -4 -8 -10 -11 -5 -3 -10 -1 -10 4 0 6 5 11
10 11 6 0 10 -2 10 -4z m60 -4 c0 -5 -7 -9 -15 -9 -8 0 -12 4 -9 9 3 4 9 8 15
8 5 0 9 -4 9 -8z m-2 -47 c-3 -3 -9 2 -12 12 -6 14 -5 15 5 6 7 -7 10 -15 7
-18z m-68 10 c0 -2 -6 -8 -13 -14 -10 -8 -14 -7 -14 2 0 8 6 14 14 14 7 0 13
-1 13 -2z m107 -37 c-3 -8 -6 -5 -6 6 -1 11 2 17 5 13 3 -3 4 -12 1 -19z
m-117 -8 c0 -5 -4 -10 -10 -10 -5 0 -10 5 -10 10 0 6 5 10 10 10 6 0 10 -4 10
-10z m-99 -28 c-6 -2 -8 -9 -4 -15 3 -7 2 -9 -2 -4 -5 4 -9 16 -10 27 -1 16 1
17 13 8 9 -8 10 -14 3 -16z m-45 2 c-1 -8 -6 -17 -12 -21 -5 -4 -6 -4 -2 1 4
5 3 14 -2 21 -7 8 -5 12 4 12 8 0 13 -6 12 -13z m139 -13 c-8 -14 -25 -14 -25
0 0 5 5 7 10 4 6 -3 10 -1 10 6 0 7 3 10 6 6 3 -3 3 -10 -1 -16z m-129 -34 c8
3 14 0 14 -7 0 -6 -4 -8 -10 -5 -5 3 -10 2 -10 -4 0 -5 6 -11 13 -14 6 -2 -1
-4 -18 -4 -16 0 -24 2 -17 4 13 5 17 24 5 22 -17 -3 -24 2 -17 12 4 7 10 7 16
1 6 -6 17 -8 24 -5z m-49 -30 c-2 -6 -9 -12 -15 -13 -7 -1 -8 0 -2 3 8 3 7 9
-1 19 -10 12 -9 13 5 8 9 -4 15 -11 13 -17z m273 3 c3 -1 9 -2 13 -1 4 1 3 -8
-3 -19 -13 -24 -34 -16 -26 9 3 9 -3 3 -15 -12 -20 -26 -22 -26 -34 -10 -11
15 -10 19 9 28 18 10 38 12 56 5z m-86 -45 c9 9 16 12 16 7 0 -5 -9 -17 -19
-26 -18 -17 -20 -17 -29 1 -6 10 -14 17 -18 16 -11 -2 -26 -32 -20 -41 2 -4
-4 -9 -15 -9 -16 -2 -18 1 -10 11 9 10 8 15 -3 19 -9 4 -18 2 -22 -4 -4 -6
-11 -5 -21 3 -9 7 -19 12 -22 12 -3 -1 -15 5 -26 12 -21 15 -20 16 43 18 19 1
36 -2 39 -7 2 -4 9 -5 14 -2 5 4 9 1 9 -5 0 -7 -7 -10 -15 -6 -22 8 -18 -2 6
-15 12 -6 19 -7 15 -1 -3 5 1 15 9 22 8 7 12 17 9 24 -3 6 5 -2 19 -17 22 -27
25 -27 41 -12z m-4 11 c0 -3 -4 -8 -10 -11 -5 -3 -10 -1 -10 4 0 6 5 11 10 11
6 0 10 -2 10 -4z"/>
<path d="M975 3169 c-4 -6 -5 -12 -2 -15 2 -3 7 2 10 11 7 17 1 20 -8 4z"/>
<path d="M760 3135 c7 -9 15 -13 18 -10 3 3 11 0 19 -6 7 -6 13 -10 14 -8 8
38 7 40 -7 28 -11 -9 -14 -8 -14 2 0 11 -2 11 -10 -1 -6 -10 -10 -11 -10 -2 0
6 -5 12 -11 12 -8 0 -7 -5 1 -15z"/>
<path d="M16 3387 c3 -10 9 -15 12 -12 3 3 0 11 -7 18 -10 9 -11 8 -5 -6z"/>
<path d="M995 3224 c-19 -10 -25 -10 -25 -1 0 8 -3 7 -9 -2 -7 -11 -9 -11 -14
0 -3 8 -6 9 -6 3 -1 -6 5 -17 13 -23 10 -9 16 -8 26 4 9 11 16 12 25 5 8 -7
17 -4 29 8 14 16 14 19 1 19 -9 0 -27 -6 -40 -13z"/>
<path d="M842 3198 c-16 -16 -15 -28 2 -28 19 0 27 13 17 28 -5 9 -10 9 -19 0z"/>
<path d="M905 3190 c-4 -6 -11 -7 -17 -4 -7 4 -8 2 -4 -5 6 -9 11 -9 22 0 14
11 18 19 10 19 -3 0 -8 -5 -11 -10z"/>
<path d="M5113 2980 c-12 -5 -29 -21 -39 -35 -52 -80 5 -176 100 -170 62 3
110 69 98 133 -5 26 -54 82 -72 82 -6 0 5 -15 24 -34 20 -18 37 -42 37 -52 5
-75 -30 -116 -101 -119 -50 -2 -104 57 -95 105 11 57 30 76 90 91 27 6 27 7 5
7 -14 1 -35 -3 -47 -8z"/>
<path d="M4140 2356 c0 -3 9 -10 20 -16 11 -6 20 -8 20 -6 0 3 -9 10 -20 16
-11 6 -20 8 -20 6z"/>
<path d="M4212 2316 c16 -8 34 -18 40 -21 7 -4 2 3 -12 14 -14 11 -32 21 -40
21 -8 0 -3 -7 12 -14z"/>
<path d="M4303 2270 c48 -26 62 -26 19 0 -18 11 -38 20 -45 20 -6 0 5 -9 26
-20z"/>
<path d="M4360 2246 c0 -3 9 -10 20 -16 11 -6 20 -8 20 -6 0 3 -9 10 -20 16
-11 6 -20 8 -20 6z"/>
<path d="M4430 2206 c0 -2 9 -6 20 -9 11 -3 18 -1 14 4 -5 9 -34 13 -34 5z"/>
<path d="M4510 2166 c0 -2 7 -7 16 -10 8 -3 12 -2 9 4 -6 10 -25 14 -25 6z"/>
<path d="M4550 2156 c0 -2 8 -10 18 -17 15 -13 16 -12 3 4 -13 16 -21 21 -21
13z"/>
<path d="M4602 2124 c10 -10 20 -16 22 -13 3 3 -5 11 -17 18 -21 13 -21 12 -5
-5z"/>
<path d="M4662 2094 c10 -10 20 -16 22 -13 3 3 -5 11 -17 18 -21 13 -21 12 -5
-5z"/>
<path d="M4810 2026 c0 -2 8 -10 18 -17 15 -13 16 -12 3 4 -13 16 -21 21 -21
13z"/>
</g>
</svg>
